<svg width="133" height="48" viewBox="0 0 133 48" fill="none" xmlns="http://www.w3.org/2000/svg">
<g clip-path="url(#clip0_1452_1308)">
<path d="M124.267 0L123.465 4.61947L126.837 7.8978L122.155 8.56066L120.121 12.7828L118.066 8.54354L113.399 7.90465L116.776 4.61947L115.961 0.00513845L120.115 2.18898L124.267 0Z" fill="#38429A"/>
<path d="M18.274 21.3229C23.618 22.1279 22.5201 29.839 16.5903 29.839H0.119873V12.7827H16.5903C22.5201 12.8067 23.618 20.5178 18.274 21.3229ZM15.6397 19.8841C16.664 19.8841 17.5187 19.0791 17.5187 18.0051C17.5187 16.9312 16.664 16.1262 15.6397 16.1262H4.92604V19.8841H15.638H15.6397ZM15.6397 26.5213C16.664 26.5213 17.5187 25.6923 17.5187 24.6663C17.5187 23.6403 16.664 22.7633 15.6397 22.7633H4.92604V26.5213H15.638H15.6397Z" fill="#38429A"/>
<path d="M29.8167 25.1544V29.839H25.0105V12.7828H40.628C44.069 12.7828 46.8267 15.614 46.8267 18.9814C46.8267 22.1296 44.4356 24.716 41.409 25.0825L46.777 29.8407H41.0425L35.6985 25.1561H29.8167V25.1544ZM29.8167 16.1262V21.811H39.5283C41.0904 21.811 42.3579 20.5418 42.3579 18.9797C42.3579 17.4176 41.1127 16.1245 39.5283 16.1245H29.8167V16.1262Z" fill="#38429A"/>
<path d="M54.9746 12.7828V29.839H50.1667V12.7828H54.9746Z" fill="#38429A"/>
<path d="M80.23 16.1262H71.7138V29.8407H66.906V16.1262H58.4138V12.7828H80.23V16.1262Z" fill="#38429A"/>
<path d="M79.8396 29.839L88.4773 12.7828H94.8713L103.509 29.839H98.7268L97.0671 26.6429H86.3295L84.6697 29.839H79.8379H79.8396ZM91.6752 16.1005L87.9412 23.3234H95.4571L91.6752 16.1005Z" fill="#38429A"/>
<path d="M124.885 12.7828H132.987V29.839H128.155V16.1005L122.494 29.839H117.736L112.123 16.1005V29.839H107.291V12.7828H115.379L120.127 24.4505L124.885 12.7828Z" fill="#38429A"/>
<path d="M3.29878 47.2395L1.85487 44.7354H0.0478516V47.9589H1.08582V45.4547L2.51945 47.9589H4.32647V44.7354H3.29878V47.2395Z" fill="#38429A"/>
<path d="M7.00553 44.7354L5.40918 47.9589H6.44715L6.72805 47.3954H8.65497L8.94101 47.9589H9.97384L8.37749 44.7354H7.00381H7.00553ZM7.07575 46.6863L7.69408 45.4547L8.31241 46.6863H7.07575Z" fill="#38429A"/>
<path d="M10.8335 45.4599H12.4059V47.9589H13.4524V45.4599H15.0248V44.7354H10.8335V45.4599Z" fill="#38429A"/>
<path d="M16.145 47.9589H17.1778V44.7354H16.145V47.9589Z" fill="#38429A"/>
<path d="M20.8381 44.6943C19.8875 44.6943 18.3665 45.0128 18.375 46.3403C18.3939 47.2035 19.1595 48 20.8381 48C22.5166 48 23.2908 47.2018 23.3045 46.3403C23.3182 45.0128 21.7921 44.6943 20.8381 44.6943ZM20.8381 47.2858C19.8875 47.2858 19.4044 46.8113 19.3942 46.3403C19.3805 45.8795 19.8652 45.4137 20.8381 45.4137C21.7561 45.4137 22.2991 45.8282 22.2905 46.3403C22.2717 46.8113 21.7887 47.2858 20.8381 47.2858Z" fill="#38429A"/>
<path d="M27.7563 47.2395L26.3124 44.7354H24.5054V47.9589H25.5416V45.4547L26.977 47.9589H28.784V44.7354H27.7563V47.2395Z" fill="#38429A"/>
<path d="M31.4628 44.7354L29.8665 47.9589H30.9044L31.1853 47.3954H33.1122L33.3983 47.9589H34.4311L32.8348 44.7354H31.4611H31.4628ZM31.5313 46.6863L32.1496 45.4547L32.768 46.6863H31.5313Z" fill="#38429A"/>
<path d="M36.567 44.7354H35.5205V47.9589H38.8639V47.2532H36.567V44.7354Z" fill="#38429A"/>
<path d="M46.6983 45.9292C46.6983 45.2783 46.1639 44.7354 45.5045 44.7354H42.5071V47.9589H43.5536V47.1145H44.4391L45.4531 47.9589H46.6898L45.6707 47.1059C46.2479 47.0185 46.6983 46.5287 46.6983 45.9309V45.9292ZM45.2681 46.3951H43.5536V45.4582H45.2681C45.5216 45.4582 45.7289 45.6603 45.7289 45.9292C45.7289 46.1981 45.5216 46.3951 45.2681 46.3951Z" fill="#38429A"/>
<path d="M47.9092 47.9589H51.5352V47.2532H48.9471V46.6589H51.5352V46.0354H48.9471V45.4599H51.5352V44.7354H47.9092V47.9589Z" fill="#38429A"/>
<path d="M54.8358 44.6943C54.2448 44.6943 52.729 44.8518 52.729 45.7048C52.729 46.9226 55.9148 46.5218 55.9148 46.986C55.9148 47.171 55.5089 47.2858 54.8358 47.2858C54.1626 47.2858 53.7567 47.1659 53.7567 46.9809V46.8661H52.729V46.9809C52.729 47.529 53.5306 48 54.8358 48C56.1409 48 56.9477 47.5393 56.9477 46.986C56.9477 45.7682 53.7567 46.1793 53.7567 45.7048C53.7567 45.525 54.1387 45.4137 54.8358 45.4137C55.5329 45.4137 55.9148 45.5335 55.9148 45.7185V45.8384H56.9477V45.71C56.9528 45.1653 56.1769 44.696 54.8358 44.696V44.6943Z" fill="#38429A"/>
<path d="M58.1792 47.9589H59.212V44.7354H58.1792V47.9589Z" fill="#38429A"/>
<path d="M61.6134 44.7354H60.5669V47.9589H63.9103V47.2532H61.6134V44.7354Z" fill="#38429A"/>
<path d="M65.0305 47.9589H66.0633V44.7354H65.0305V47.9589Z" fill="#38429A"/>
<path d="M67.4182 47.9589H71.0443V47.2532H68.4562V46.6589H71.0443V46.0354H68.4562V45.4599H71.0443V44.7354H67.4182V47.9589Z" fill="#38429A"/>
<path d="M75.6088 47.2395L74.1649 44.7354H72.3579V47.9589H73.3942V45.4547L74.8295 47.9589H76.6365V44.7354H75.6088V47.2395Z" fill="#38429A"/>
<path d="M80.2968 45.4137C81.0625 45.4137 81.5181 45.6946 81.6808 46.0542H82.7376C82.5303 44.9666 81.1704 44.6943 80.2985 44.6943C79.3479 44.6943 77.8218 45.0128 77.8321 46.3403C77.8406 47.2035 78.6166 48 80.2951 48C81.7801 48 82.5646 47.3765 82.7205 46.6349H81.6637C81.5061 46.9894 81.0368 47.2858 80.2934 47.2858C79.3428 47.2858 78.8598 46.8147 78.8495 46.3403C78.8358 45.8795 79.3154 45.4137 80.2968 45.4137Z" fill="#38429A"/>
<path d="M83.9177 47.9589H87.542V47.2532H84.954V46.6589H87.542V46.0354H84.954V45.4599H87.542V44.7354H83.9177V47.9589Z" fill="#38429A"/>
<path d="M94.3746 44.7354H91.3772V47.9589H92.41V47.1145H94.3746C95.0255 47.1145 95.5685 46.5801 95.5685 45.9292C95.5685 45.2783 95.0238 44.7354 94.3746 44.7354ZM94.1314 46.3951H92.4117V45.4582H94.1314C94.39 45.4582 94.6024 45.6603 94.6024 45.9292C94.6024 46.1981 94.39 46.3951 94.1314 46.3951Z" fill="#38429A"/>
<path d="M97.7916 44.7354H96.7451V47.9589H100.089V47.2532H97.7916V44.7354Z" fill="#38429A"/>
<path d="M102.536 44.7354L100.94 47.9589H101.978L102.259 47.3954H104.185L104.472 47.9589H105.504L103.908 44.7354H102.534H102.536ZM102.606 46.6863L103.225 45.4547L103.843 46.6863H102.608H102.606Z" fill="#38429A"/>
<path d="M106.364 45.4599H107.937V47.9589H108.983V45.4599H110.556V44.7354H106.364V45.4599Z" fill="#38429A"/>
<path d="M111.676 47.9589H112.709V46.6589H115.295V46.0371H112.709V45.4599H115.295V44.7354H111.676V47.9589Z" fill="#38429A"/>
<path d="M118.823 44.6943C117.873 44.6943 116.352 45.0128 116.36 46.3403C116.379 47.2035 117.145 48 118.823 48C120.502 48 121.276 47.2018 121.29 46.3403C121.304 45.0128 119.777 44.6943 118.823 44.6943ZM118.823 47.2858C117.873 47.2858 117.39 46.8113 117.38 46.3403C117.366 45.8795 117.851 45.4137 118.823 45.4137C119.741 45.4137 120.284 45.8282 120.276 46.3403C120.257 46.8113 119.774 47.2858 118.823 47.2858Z" fill="#38429A"/>
<path d="M126.68 45.9292C126.68 45.2783 126.146 44.7354 125.486 44.7354H122.489V47.9589H123.535V47.1145H124.421L125.435 47.9589H126.671L125.652 47.1059C126.23 47.0185 126.68 46.5287 126.68 45.9309V45.9292ZM125.25 46.3951H123.535V45.4582H125.25C125.503 45.4582 125.711 45.6603 125.711 45.9292C125.711 46.1981 125.503 46.3951 125.25 46.3951Z" fill="#38429A"/>
<path d="M130.378 47.2395L129.451 44.7354H127.893V47.9589H128.939V45.4547L129.861 47.9589H130.89L131.817 45.4547V47.9589H132.863V44.7354H131.305L130.378 47.2395Z" fill="#38429A"/>
<path d="M3.94462 35.2121H2.11876L0 39.4941H1.37882L1.75221 38.7456H4.31287L4.69312 39.4941H6.06509L3.94462 35.2121ZM2.21125 37.8036L3.03169 36.1678L3.85213 37.8036H2.20953H2.21125Z" fill="#38429A"/>
<path d="M12.4264 38.3722H13.6032L14.9511 39.4941H16.5937L15.2406 38.3603C16.0062 38.2438 16.6074 37.5946 16.6074 36.7982C16.6074 35.9349 15.8966 35.2121 15.0214 35.2121H11.0391V39.4941H12.4299V38.3722H12.4264ZM12.4264 36.173H14.7062C15.0436 36.173 15.3194 36.4419 15.3194 36.7982C15.3194 37.1544 15.0436 37.4165 14.7062 37.4165H12.4264V36.173Z" fill="#38429A"/>
<path d="M23.1367 38.7456H25.6974L26.0776 39.4941H27.4496L25.3291 35.2121H23.5033L21.3828 39.4941H22.7616L23.135 38.7456H23.1367ZM24.4162 36.1678L25.2367 37.8036H23.5941L24.4145 36.1678H24.4162Z" fill="#38429A"/>
<path d="M37.0379 37.3617C38.4167 37.1836 38.141 35.2292 36.6149 35.2121H32.4185V39.4941H36.6149C38.141 39.4941 38.415 37.5278 37.0379 37.3617ZM33.8093 36.173H36.3391C36.5481 36.173 36.7313 36.3374 36.7313 36.5532C36.7313 36.769 36.5481 36.9386 36.3391 36.9386H33.8093V36.173ZM36.3391 38.5555H33.8093V37.7659H36.3391C36.5481 37.7659 36.7313 37.9372 36.7313 38.165C36.7313 38.3791 36.5481 38.5572 36.3391 38.5572V38.5555Z" fill="#38429A"/>
<path d="M44.5023 35.2121H43.1304V39.4941H44.5023V35.2121Z" fill="#38429A"/>
<path d="M51.2869 38.7456H53.8475L54.2278 39.4941H55.5998L53.4793 35.2121H51.6534L49.533 39.4941H50.9118L51.2852 38.7456H51.2869ZM52.5664 36.1678L53.3868 37.8036H51.7442L52.5646 36.1678H52.5664Z" fill="#38429A"/>
<path d="M87.9857 38.0297V38.3962L87.8282 38.4031H86.5573C86.5624 38.3449 86.5641 38.2832 86.5641 38.2198V36.5276H85.4405V38.4014H85.0654L84.6612 38.4031H70.7342V36.1559H69.6106V36.5378H69.2355C68.237 36.5327 67.7385 37.0294 67.7385 38.028V39.525H87.811C88.2461 39.525 88.5698 39.4171 88.7839 39.1996C88.998 38.982 89.1059 38.6549 89.1059 38.2181V36.5293H87.9823V38.028L87.9857 38.0297ZM69.6123 38.4048H68.8638V38.0297C68.8638 37.9115 68.8964 37.8207 68.9632 37.7539C69.03 37.6871 69.1208 37.6546 69.239 37.6546H69.6141V38.4031L69.6123 38.4048Z" fill="#38429A"/>
<path d="M97.9715 38.4048V34.6503H96.8479L96.8513 38.0331C96.8582 38.1821 96.8342 38.2815 96.7794 38.3277C96.7246 38.374 96.6218 38.3997 96.4728 38.4048H95.2002L95.7243 37.6563V36.9078C95.7243 36.6526 95.5993 36.5258 95.3492 36.5258H92.7286C92.4785 36.5258 92.3535 36.6526 92.3535 36.9078V37.6563L92.8656 38.4048H91.3035V36.5327H90.1799V40.0405C90.1799 40.1707 90.0754 40.2769 89.9452 40.2769H89.8065H89.4314V41.4039L90.1799 41.4005C90.5327 41.3902 90.8016 41.2926 90.9901 41.1042C91.1785 40.9175 91.283 40.6417 91.3035 40.2769V39.5284H95.5616L96.6766 39.5318C97.1117 39.5318 97.4354 39.4239 97.6495 39.2064C97.8636 38.9889 97.9698 38.7217 97.9681 38.4048H97.9715ZM94.0406 38.4048L93.4788 37.6563H94.6024L94.0406 38.4048Z" fill="#38429A"/>
<path d="M99.7664 34.6486H98.6428V39.5284H99.7664V34.6486Z" fill="#38429A"/>
<path d="M85.1732 40.2769H84.0496V41.4005H85.1732V40.2769Z" fill="#38429A"/>
<path d="M86.5452 40.2769H85.4216V41.4005H86.5452V40.2769Z" fill="#38429A"/>
<path d="M89.1094 40.2803H87.9858V41.4039H89.1094V40.2803Z" fill="#38429A"/>
<path d="M69.3624 34.6417H68.2388V35.7653H69.3624V34.6417Z" fill="#38429A"/>
<path d="M70.7342 34.6417H69.6106V35.7653H70.7342V34.6417Z" fill="#38429A"/>
<path d="M107.339 38.2233V36.519L106.964 36.5156H105.837C105.337 36.5224 104.96 36.6526 104.71 36.9044C104.46 37.1562 104.335 37.4062 104.335 37.6529V38.4031H104.133C103.697 38.4031 103.372 38.5127 103.156 38.7302C102.94 38.9478 102.833 39.2766 102.833 39.7134V41.4074H103.96V39.9052C103.953 39.7545 103.977 39.6569 104.031 39.6106C104.086 39.5644 104.187 39.5387 104.336 39.5336L106.059 39.5267C106.481 39.5267 106.798 39.4205 107.015 39.2064C107.231 38.9923 107.341 38.6652 107.341 38.225L107.339 38.2233ZM106.212 38.4031H105.462V38.028C105.462 37.8927 105.493 37.7985 105.552 37.7471C105.612 37.694 105.708 37.6632 105.839 37.6529H106.214V38.4031H106.212Z" fill="#38429A"/>
<path d="M128.216 38.2147V36.5173H127.089V38.386L126.714 38.3979H125.64C125.645 38.338 125.647 38.278 125.647 38.2147V36.5173H124.52V38.3928L124.145 38.3979H123.026L109.154 38.3945V34.9723H108.027V38.2164C108.027 38.6549 108.135 38.982 108.349 39.1995C108.565 39.4171 108.891 39.5267 109.326 39.5267L123.4 39.5233H126.915C127.35 39.5233 127.675 39.4136 127.891 39.1961C128.107 38.9786 128.215 38.6497 128.215 38.213L128.216 38.2147Z" fill="#38429A"/>
<path d="M128.216 40.2803H127.089V41.4074H128.216V40.2803Z" fill="#38429A"/>
<path d="M132.976 40.2803H131.849V41.4074H132.976V40.2803Z" fill="#38429A"/>
<path d="M126.774 40.2803H125.647V41.4074H126.774V40.2803Z" fill="#38429A"/>
<path d="M125.644 34.974H124.517V36.1011H125.644V34.974Z" fill="#38429A"/>
<path d="M124.201 34.974H123.074V36.1011H124.201V34.974Z" fill="#38429A"/>
<path d="M131.849 36.5224V38.0245L131.844 38.3996H130.405V36.5224H129.278V40.0063C129.278 40.1553 129.157 40.2769 129.006 40.2769H128.903H128.528V41.4074L129.278 41.4039C129.631 41.3937 129.902 41.2943 130.092 41.1076C130.28 40.9192 130.385 40.6434 130.405 40.2786V39.5284H131.678C132.113 39.5284 132.438 39.4188 132.654 39.2012C132.87 38.9837 132.978 38.6549 132.978 38.2181V36.5241H131.851L131.849 36.5224Z" fill="#38429A"/>
</g>
<defs>
<clipPath id="clip0_1452_1308">
<rect width="132.987" height="48" fill="#38429A"/>
</clipPath>
</defs>
</svg>
